solid OpenSCAD_Model
  facet normal -1 0 -2.22045e-16
    outer loop
      vertex -1.66533e-15 5 15
      vertex -1.58383e-15 6.15881 14.6329
      vertex -1.58383e-15 3.84119 14.6329
    endloop
  endfacet
  facet normal -1 0 -2.22045e-16
    outer loop
      vertex -1.58383e-15 3.84119 14.6329
      vertex -1.58383e-15 6.15881 14.6329
      vertex -1.34728e-15 7.20419 13.5676
    endloop
  endfacet
  facet normal -1 0 -2.22045e-16
    outer loop
      vertex -1.58383e-15 3.84119 14.6329
      vertex -1.34728e-15 7.20419 13.5676
      vertex -9.78859e-16 8.03381 11.9084
    endloop
  endfacet
  facet normal -1 0 -2.22045e-16
    outer loop
      vertex -1.58383e-15 3.84119 14.6329
      vertex -9.78859e-16 8.03381 11.9084
      vertex -5.14617e-16 8.56646 9.81763
    endloop
  endfacet
  facet normal -1 0 -2.22045e-16
    outer loop
      vertex -1.58383e-15 3.84119 14.6329
      vertex -5.14617e-16 8.56646 9.81763
      vertex 0 8.75 7.5
    endloop
  endfacet
  facet normal -1 0 -2.22045e-16
    outer loop
      vertex -1.58383e-15 3.84119 14.6329
      vertex 0 8.75 7.5
      vertex 0 5 7.5
    endloop
  endfacet
  facet normal -1 0 -2.22045e-16
    outer loop
      vertex -1.58383e-15 3.84119 14.6329
      vertex 0 5 7.5
      vertex 1.66533e-15 5 0
    endloop
  endfacet
  facet normal -1 0 -2.22045e-16
    outer loop
      vertex -1.58383e-15 3.84119 14.6329
      vertex 1.66533e-15 5 0
      vertex 1.58383e-15 3.84119 0.367076
    endloop
  endfacet
  facet normal -1 0 -2.22045e-16
    outer loop
      vertex -1.58383e-15 3.84119 14.6329
      vertex 1.58383e-15 3.84119 0.367076
      vertex 1.34728e-15 2.79581 1.43237
    endloop
  endfacet
  facet normal -1 0 -2.22045e-16
    outer loop
      vertex -1.58383e-15 3.84119 14.6329
      vertex 1.34728e-15 2.79581 1.43237
      vertex 9.78859e-16 1.96619 3.09161
    endloop
  endfacet
  facet normal -1 0 -2.22045e-16
    outer loop
      vertex -1.58383e-15 3.84119 14.6329
      vertex 9.78859e-16 1.96619 3.09161
      vertex 5.14617e-16 1.43354 5.18237
    endloop
  endfacet
  facet normal -1 0 -2.22045e-16
    outer loop
      vertex -1.58383e-15 3.84119 14.6329
      vertex 5.14617e-16 1.43354 5.18237
      vertex 0 1.25 7.5
    endloop
  endfacet
  facet normal -1 0 -2.22045e-16
    outer loop
      vertex -1.58383e-15 3.84119 14.6329
      vertex 0 1.25 7.5
      vertex -5.14617e-16 1.43354 9.81763
    endloop
  endfacet
  facet normal -1 0 -2.22045e-16
    outer loop
      vertex -1.58383e-15 3.84119 14.6329
      vertex -5.14617e-16 1.43354 9.81763
      vertex -9.78859e-16 1.96619 11.9084
    endloop
  endfacet
  facet normal -1 0 -2.22045e-16
    outer loop
      vertex -1.58383e-15 3.84119 14.6329
      vertex -9.78859e-16 1.96619 11.9084
      vertex -1.34728e-15 2.79581 13.5676
    endloop
  endfacet
  facet normal -2.11678e-16 0.30198 0.953314
    outer loop
      vertex 0 5 15
      vertex -1.66533e-15 5 15
      vertex 1.5 5 15
    endloop
  endfacet
  facet normal -2.11678e-16 0.30198 0.953314
    outer loop
      vertex 0 5 15
      vertex 0 6.15881 14.6329
      vertex -1.58383e-15 6.15881 14.6329
    endloop
  endfacet
  facet normal -2.11678e-16 0.30198 0.953314
    outer loop
      vertex -1.58383e-15 6.15881 14.6329
      vertex -1.66533e-15 5 15
      vertex 0 5 15
    endloop
  endfacet
  facet normal -2.11678e-16 -0.30198 0.953314
    outer loop
      vertex 1.5 5 15
      vertex -1.66533e-15 5 15
      vertex -1.58383e-15 3.84119 14.6329
    endloop
  endfacet
  facet normal -2.11678e-16 -0.30198 0.953314
    outer loop
      vertex 1.5 3.84119 14.6329
      vertex 1.5 5 15
      vertex -1.58383e-15 3.84119 14.6329
    endloop
  endfacet
  facet normal -1.55521e-16 -0.713747 0.700403
    outer loop
      vertex 1.5 3.84119 14.6329
      vertex -1.58383e-15 3.84119 14.6329
      vertex -1.34728e-15 2.79581 13.5676
    endloop
  endfacet
  facet normal -1.55521e-16 -0.713747 0.700403
    outer loop
      vertex 1.5 2.79581 13.5676
      vertex 1.5 3.84119 14.6329
      vertex -1.34728e-15 2.79581 13.5676
    endloop
  endfacet
  facet normal -9.93014e-17 -0.894427 0.447214
    outer loop
      vertex 1.5 2.79581 13.5676
      vertex -1.34728e-15 2.79581 13.5676
      vertex -9.78859e-16 1.96619 11.9084
    endloop
  endfacet
  facet normal -9.93014e-17 -0.894427 0.447214
    outer loop
      vertex 1.5 1.96619 11.9084
      vertex 1.5 2.79581 13.5676
      vertex -9.78859e-16 1.96619 11.9084
    endloop
  endfacet
  facet normal -5.48177e-17 -0.969047 0.246877
    outer loop
      vertex 1.5 1.96619 11.9084
      vertex -9.78859e-16 1.96619 11.9084
      vertex -5.14617e-16 1.43354 9.81763
    endloop
  endfacet
  facet normal -5.48177e-17 -0.969047 0.246877
    outer loop
      vertex 1.5 1.43354 9.81763
      vertex 1.5 1.96619 11.9084
      vertex -5.14617e-16 1.43354 9.81763
    endloop
  endfacet
  facet normal -1.75293e-17 -0.996879 0.078945
    outer loop
      vertex 1.5 1.43354 9.81763
      vertex -5.14617e-16 1.43354 9.81763
      vertex 0 1.25 7.5
    endloop
  endfacet
  facet normal -1.75293e-17 -0.996879 0.078945
    outer loop
      vertex 1.5 1.25 7.5
      vertex 1.5 1.43354 9.81763
      vertex 0 1.25 7.5
    endloop
  endfacet
  facet normal 1.75293e-17 -0.996879 -0.078945
    outer loop
      vertex 1.5 1.25 7.5
      vertex 0 1.25 7.5
      vertex 5.14617e-16 1.43354 5.18237
    endloop
  endfacet
  facet normal 1.75293e-17 -0.996879 -0.078945
    outer loop
      vertex 1.5 1.43354 5.18237
      vertex 1.5 1.25 7.5
      vertex 5.14617e-16 1.43354 5.18237
    endloop
  endfacet
  facet normal 5.48177e-17 -0.969047 -0.246877
    outer loop
      vertex 1.5 1.43354 5.18237
      vertex 5.14617e-16 1.43354 5.18237
      vertex 9.78859e-16 1.96619 3.09161
    endloop
  endfacet
  facet normal 5.48177e-17 -0.969047 -0.246877
    outer loop
      vertex 1.5 1.96619 3.09161
      vertex 1.5 1.43354 5.18237
      vertex 9.78859e-16 1.96619 3.09161
    endloop
  endfacet
  facet normal 9.93014e-17 -0.894427 -0.447214
    outer loop
      vertex 1.5 1.96619 3.09161
      vertex 9.78859e-16 1.96619 3.09161
      vertex 1.34728e-15 2.79581 1.43237
    endloop
  endfacet
  facet normal 9.93014e-17 -0.894427 -0.447214
    outer loop
      vertex 1.5 2.79581 1.43237
      vertex 1.5 1.96619 3.09161
      vertex 1.34728e-15 2.79581 1.43237
    endloop
  endfacet
  facet normal 1.55521e-16 -0.713747 -0.700403
    outer loop
      vertex 1.5 2.79581 1.43237
      vertex 1.34728e-15 2.79581 1.43237
      vertex 1.58383e-15 3.84119 0.367076
    endloop
  endfacet
  facet normal 1.55521e-16 -0.713747 -0.700403
    outer loop
      vertex 1.5 3.84119 0.367076
      vertex 1.5 2.79581 1.43237
      vertex 1.58383e-15 3.84119 0.367076
    endloop
  endfacet
  facet normal 2.11678e-16 -0.30198 -0.953314
    outer loop
      vertex 1.58383e-15 3.84119 0.367076
      vertex 1.66533e-15 5 0
      vertex 1.5 3.84119 0.367076
    endloop
  endfacet
  facet normal 2.11678e-16 -0.30198 -0.953314
    outer loop
      vertex 1.5 3.84119 0.367076
      vertex 1.66533e-15 5 0
      vertex 1.5 5 3.33067e-16
    endloop
  endfacet
  facet normal 0 -1 0
    outer loop
      vertex 0 5 7.5
      vertex 0 5 0
      vertex 1.66533e-15 5 0
    endloop
  endfacet
  facet normal 0 -1 0
    outer loop
      vertex 1.5 5 3.33067e-16
      vertex 1.66533e-15 5 0
      vertex 1.5 5 0
    endloop
  endfacet
  facet normal 0 0 -1
    outer loop
      vertex 0 5 0
      vertex 0 16.5 0
      vertex 1.66533e-15 5 0
    endloop
  endfacet
  facet normal 0 0 -1
    outer loop
      vertex 1.5 15 0
      vertex 0 16.5 0
      vertex 20 16.5 0
    endloop
  endfacet
  facet normal 0 0 -1
    outer loop
      vertex 18.0653 15 0
      vertex 20 16.5 0
      vertex 20 15.5452 0
    endloop
  endfacet
  facet normal 0 0 -1
    outer loop
      vertex 40 -29 0
      vertex 40 -14.5 0
      vertex 42 -14.5 0
    endloop
  endfacet
  facet normal 0 0 -1
    outer loop
      vertex 40 -29 0
      vertex 42 -14.5 0
      vertex 42 -31 0
    endloop
  endfacet
  facet normal 0 0 -1
    outer loop
      vertex 40 -29 0
      vertex 42 -31 0
      vertex 27.8545 -29 0
    endloop
  endfacet
  facet normal 0 0 -1
    outer loop
      vertex 27.8545 -29 0
      vertex 42 -31 0
      vertex 40 -31 0
    endloop
  endfacet
  facet normal 0 0 -1
    outer loop
      vertex 27.8545 -29 0
      vertex 40 -31 0
      vertex 25.5 -31 0
    endloop
  endfacet
  facet normal 0 0 -1
    outer loop
      vertex 25.8237 -29 0
      vertex 25.5 -31 0
      vertex 25.5 -29 0
    endloop
  endfacet
  facet normal 0 0 -1
    outer loop
      vertex 27.8545 -29 0
      vertex 25.5 -31 0
      vertex 25.8237 -29 0
    endloop
  endfacet
  facet normal 0 0 -1
    outer loop
      vertex 1.5 15 0
      vertex 20 16.5 0
      vertex 18.0653 15 0
    endloop
  endfacet
  facet normal 0 0 -1
    outer loop
      vertex 1.66533e-15 5 0
      vertex 0 16.5 0
      vertex 1.5 15 0
    endloop
  endfacet
  facet normal 0 0 -1
    outer loop
      vertex 1.5 5 0
      vertex 1.66533e-15 5 0
      vertex 1.5 15 0
    endloop
  endfacet
  facet normal 0 0 -1
    outer loop
      vertex 18.0653 15 0
      vertex 20 15.5452 0
      vertex 27.8545 -29 0
    endloop
  endfacet
  facet normal 0 0 -1
    outer loop
      vertex 18.0653 15 0
      vertex 27.8545 -29 0
      vertex 25.8237 -29 0
    endloop
  endfacet
  facet normal -1 0 0
    outer loop
      vertex 0 5 0
      vertex 0 5 7.5
      vertex 0 16.5 0
    endloop
  endfacet
  facet normal -1 0 0
    outer loop
      vertex 0 16.5 0
      vertex 0 5 7.5
      vertex 0 8.75 7.5
    endloop
  endfacet
  facet normal -1 0 0
    outer loop
      vertex 0 16.5 0
      vertex 0 8.75 7.5
      vertex 0 8.56646 9.81763
    endloop
  endfacet
  facet normal -1 0 0
    outer loop
      vertex 0 8.56646 9.81763
      vertex 0 8.03381 11.9084
      vertex 0 16.5 0
    endloop
  endfacet
  facet normal -1 0 0
    outer loop
      vertex 0 8.03381 11.9084
      vertex 0 7.20419 13.5676
      vertex 0 16.5 0
    endloop
  endfacet
  facet normal -1 0 0
    outer loop
      vertex 0 7.20419 13.5676
      vertex 0 16.5 15
      vertex 0 16.5 0
    endloop
  endfacet
  facet normal -1 0 0
    outer loop
      vertex 0 6.15881 14.6329
      vertex 0 5 15
      vertex 0 16.5 15
    endloop
  endfacet
  facet normal -1 0 0
    outer loop
      vertex 0 6.15881 14.6329
      vertex 0 16.5 15
      vertex 0 7.20419 13.5676
    endloop
  endfacet
  facet normal -1.75293e-17 0.996879 0.078945
    outer loop
      vertex 0 8.75 7.5
      vertex -5.14617e-16 8.56646 9.81763
      vertex 0 8.56646 9.81763
    endloop
  endfacet
  facet normal -5.48177e-17 0.969047 0.246877
    outer loop
      vertex -9.78859e-16 8.03381 11.9084
      vertex 0 8.03381 11.9084
      vertex -5.14617e-16 8.56646 9.81763
    endloop
  endfacet
  facet normal -5.48177e-17 0.969047 0.246877
    outer loop
      vertex -5.14617e-16 8.56646 9.81763
      vertex 0 8.03381 11.9084
      vertex 0 8.56646 9.81763
    endloop
  endfacet
  facet normal -9.93014e-17 0.894427 0.447214
    outer loop
      vertex -1.34728e-15 7.20419 13.5676
      vertex 0 7.20419 13.5676
      vertex -9.78859e-16 8.03381 11.9084
    endloop
  endfacet
  facet normal -9.93014e-17 0.894427 0.447214
    outer loop
      vertex -9.78859e-16 8.03381 11.9084
      vertex 0 7.20419 13.5676
      vertex 0 8.03381 11.9084
    endloop
  endfacet
  facet normal -1.55521e-16 0.713747 0.700403
    outer loop
      vertex -1.58383e-15 6.15881 14.6329
      vertex 0 6.15881 14.6329
      vertex -1.34728e-15 7.20419 13.5676
    endloop
  endfacet
  facet normal -1.55521e-16 0.713747 0.700403
    outer loop
      vertex -1.34728e-15 7.20419 13.5676
      vertex 0 6.15881 14.6329
      vertex 0 7.20419 13.5676
    endloop
  endfacet
  facet normal 0 0 1
    outer loop
      vertex 1.5 15 15
      vertex 18.0653 15 15
      vertex 0 16.5 15
    endloop
  endfacet
  facet normal 0 0 1
    outer loop
      vertex 0 16.5 15
      vertex 0 5 15
      vertex 1.5 5 15
    endloop
  endfacet
  facet normal 0 0 1
    outer loop
      vertex 25.5 -29 15
      vertex 25.5 -31 15
      vertex 25.8237 -29 15
    endloop
  endfacet
  facet normal 0 0 1
    outer loop
      vertex 1.5 5 15
      vertex 1.5 15 15
      vertex 0 16.5 15
    endloop
  endfacet
  facet normal 0 0 1
    outer loop
      vertex 18.0653 15 15
      vertex 20 15.5452 15
      vertex 0 16.5 15
    endloop
  endfacet
  facet normal 0 0 1
    outer loop
      vertex 25.5 -31 15
      vertex 40 -31 15
      vertex 25.8237 -29 15
    endloop
  endfacet
  facet normal 0 0 1
    outer loop
      vertex 40 -29 15
      vertex 27.8545 -29 15
      vertex 40 -31 15
    endloop
  endfacet
  facet normal 0 0 1
    outer loop
      vertex 42 -31 15
      vertex 42 -14.5 15
      vertex 40 -14.5 15
    endloop
  endfacet
  facet normal 0 0 1
    outer loop
      vertex 40 -31 15
      vertex 42 -31 15
      vertex 40 -29 15
    endloop
  endfacet
  facet normal 0 0 1
    outer loop
      vertex 25.8237 -29 15
      vertex 27.8545 -29 15
      vertex 18.0653 15 15
    endloop
  endfacet
  facet normal 0 0 1
    outer loop
      vertex 25.8237 -29 15
      vertex 40 -31 15
      vertex 27.8545 -29 15
    endloop
  endfacet
  facet normal 0 0 1
    outer loop
      vertex 20 15.5452 15
      vertex 20 16.5 15
      vertex 0 16.5 15
    endloop
  endfacet
  facet normal 0 0 1
    outer loop
      vertex 40 -14.5 15
      vertex 40 -29 15
      vertex 42 -31 15
    endloop
  endfacet
  facet normal 0 0 1
    outer loop
      vertex 27.8545 -29 15
      vertex 20 15.5452 15
      vertex 18.0653 15 15
    endloop
  endfacet
  facet normal 1 0 2.22045e-16
    outer loop
      vertex 1.5 5 7.5
      vertex 1.5 2.79581 1.43237
      vertex 1.5 3.84119 0.367076
    endloop
  endfacet
  facet normal 1 0 2.22045e-16
    outer loop
      vertex 1.5 5 7.5
      vertex 1.5 1.96619 3.09161
      vertex 1.5 2.79581 1.43237
    endloop
  endfacet
  facet normal 1 0 2.22045e-16
    outer loop
      vertex 1.5 5 7.5
      vertex 1.5 1.43354 5.18237
      vertex 1.5 1.96619 3.09161
    endloop
  endfacet
  facet normal 1 0 2.22045e-16
    outer loop
      vertex 1.5 5 7.5
      vertex 1.5 1.25 7.5
      vertex 1.5 1.43354 5.18237
    endloop
  endfacet
  facet normal 1 0 2.22045e-16
    outer loop
      vertex 1.5 5 7.5
      vertex 1.5 1.43354 9.81763
      vertex 1.5 1.25 7.5
    endloop
  endfacet
  facet normal 1 0 2.22045e-16
    outer loop
      vertex 1.5 5 3.33067e-16
      vertex 1.5 5 7.5
      vertex 1.5 3.84119 0.367076
    endloop
  endfacet
  facet normal 1 0 2.22045e-16
    outer loop
      vertex 1.5 8.75 7.5
      vertex 1.5 8.03381 3.09161
      vertex 1.5 8.56646 5.18237
    endloop
  endfacet
  facet normal 1 0 2.22045e-16
    outer loop
      vertex 1.5 8.75 7.5
      vertex 1.5 7.20419 1.43237
      vertex 1.5 8.03381 3.09161
    endloop
  endfacet
  facet normal 1 0 2.22045e-16
    outer loop
      vertex 1.5 8.75 7.5
      vertex 1.5 6.15881 0.367076
      vertex 1.5 7.20419 1.43237
    endloop
  endfacet
  facet normal 1 0 2.22045e-16
    outer loop
      vertex 1.5 8.75 7.5
      vertex 1.5 5 3.33067e-16
      vertex 1.5 6.15881 0.367076
    endloop
  endfacet
  facet normal 1 0 2.22045e-16
    outer loop
      vertex 1.5 8.75 7.5
      vertex 1.5 5 7.5
      vertex 1.5 5 3.33067e-16
    endloop
  endfacet
  facet normal 1 0 2.22045e-16
    outer loop
      vertex 1.5 5 7.5
      vertex 1.5 1.96619 11.9084
      vertex 1.5 1.43354 9.81763
    endloop
  endfacet
  facet normal 1 0 2.22045e-16
    outer loop
      vertex 1.5 5 7.5
      vertex 1.5 2.79581 13.5676
      vertex 1.5 1.96619 11.9084
    endloop
  endfacet
  facet normal 1 0 2.22045e-16
    outer loop
      vertex 1.5 5 7.5
      vertex 1.5 3.84119 14.6329
      vertex 1.5 2.79581 13.5676
    endloop
  endfacet
  facet normal 1 0 2.22045e-16
    outer loop
      vertex 1.5 5 7.5
      vertex 1.5 5 15
      vertex 1.5 3.84119 14.6329
    endloop
  endfacet
  facet normal 1 0 0
    outer loop
      vertex 1.5 5 3.33067e-16
      vertex 1.5 5 0
      vertex 1.5 15 0
    endloop
  endfacet
  facet normal 1 0 0
    outer loop
      vertex 1.5 6.15881 0.367076
      vertex 1.5 5 3.33067e-16
      vertex 1.5 15 0
    endloop
  endfacet
  facet normal 1 0 0
    outer loop
      vertex 1.5 5 15
      vertex 1.5 5 7.5
      vertex 1.5 15 15
    endloop
  endfacet
  facet normal 1 0 0
    outer loop
      vertex 1.5 5 7.5
      vertex 1.5 8.75 7.5
      vertex 1.5 15 15
    endloop
  endfacet
  facet normal 1 0 0
    outer loop
      vertex 1.5 15 15
      vertex 1.5 8.56646 5.18237
      vertex 1.5 15 0
    endloop
  endfacet
  facet normal 1 0 0
    outer loop
      vertex 1.5 8.56646 5.18237
      vertex 1.5 8.03381 3.09161
      vertex 1.5 15 0
    endloop
  endfacet
  facet normal 1 0 0
    outer loop
      vertex 1.5 8.03381 3.09161
      vertex 1.5 7.20419 1.43237
      vertex 1.5 15 0
    endloop
  endfacet
  facet normal 1 0 0
    outer loop
      vertex 1.5 7.20419 1.43237
      vertex 1.5 6.15881 0.367076
      vertex 1.5 15 0
    endloop
  endfacet
  facet normal 1 0 0
    outer loop
      vertex 1.5 8.75 7.5
      vertex 1.5 8.56646 5.18237
      vertex 1.5 15 15
    endloop
  endfacet
  facet normal 0 -1 0
    outer loop
      vertex 1.5 15 15
      vertex 1.5 15 0
      vertex 18.0653 15 0
    endloop
  endfacet
  facet normal 0 -1 0
    outer loop
      vertex 18.0653 15 15
      vertex 1.5 15 15
      vertex 18.0653 15 0
    endloop
  endfacet
  facet normal -0.984808 -0.173648 0
    outer loop
      vertex 18.0653 15 0
      vertex 25.8237 -29 0
      vertex 18.0653 15 15
    endloop
  endfacet
  facet normal -0.984808 -0.173648 0
    outer loop
      vertex 18.0653 15 15
      vertex 25.8237 -29 0
      vertex 25.8237 -29 15
    endloop
  endfacet
  facet normal 2.22045e-16 1 0
    outer loop
      vertex 25.5 -29 0
      vertex 25.5 -29 15
      vertex 25.8237 -29 0
    endloop
  endfacet
  facet normal 2.22045e-16 1 0
    outer loop
      vertex 25.8237 -29 0
      vertex 25.5 -29 15
      vertex 25.8237 -29 15
    endloop
  endfacet
  facet normal -1 2.22045e-16 0
    outer loop
      vertex 25.5 -31 0
      vertex 25.5 -31 15
      vertex 25.5 -29 0
    endloop
  endfacet
  facet normal -1 2.22045e-16 0
    outer loop
      vertex 25.5 -29 0
      vertex 25.5 -31 15
      vertex 25.5 -29 15
    endloop
  endfacet
  facet normal -2.22045e-16 -1 0
    outer loop
      vertex 25.5 -31 15
      vertex 25.5 -31 0
      vertex 40 -31 0
    endloop
  endfacet
  facet normal -2.22045e-16 -1 0
    outer loop
      vertex 40 -31 15
      vertex 25.5 -31 15
      vertex 40 -31 0
    endloop
  endfacet
  facet normal 0 -1 0
    outer loop
      vertex 40 -31 15
      vertex 40 -31 0
      vertex 42 -31 0
    endloop
  endfacet
  facet normal 0 -1 0
    outer loop
      vertex 42 -31 15
      vertex 40 -31 15
      vertex 42 -31 0
    endloop
  endfacet
  facet normal 1 0 0
    outer loop
      vertex 42 -31 15
      vertex 42 -31 0
      vertex 42 -14.5 0
    endloop
  endfacet
  facet normal 1 0 0
    outer loop
      vertex 42 -14.5 15
      vertex 42 -31 15
      vertex 42 -14.5 0
    endloop
  endfacet
  facet normal 0 1 0
    outer loop
      vertex 40 -14.5 0
      vertex 40 -14.5 15
      vertex 42 -14.5 0
    endloop
  endfacet
  facet normal 0 1 0
    outer loop
      vertex 42 -14.5 0
      vertex 40 -14.5 15
      vertex 42 -14.5 15
    endloop
  endfacet
  facet normal -1 0 0
    outer loop
      vertex 40 -29 0
      vertex 40 -29 15
      vertex 40 -14.5 0
    endloop
  endfacet
  facet normal -1 0 0
    outer loop
      vertex 40 -14.5 0
      vertex 40 -29 15
      vertex 40 -14.5 15
    endloop
  endfacet
  facet normal 2.22045e-16 1 0
    outer loop
      vertex 27.8545 -29 0
      vertex 27.8545 -29 15
      vertex 40 -29 0
    endloop
  endfacet
  facet normal 2.22045e-16 1 0
    outer loop
      vertex 40 -29 0
      vertex 27.8545 -29 15
      vertex 40 -29 15
    endloop
  endfacet
  facet normal 0.984808 0.173648 0
    outer loop
      vertex 27.8545 -29 0
      vertex 20 15.5452 0
      vertex 20 15.5452 15
    endloop
  endfacet
  facet normal 0.984808 0.173648 0
    outer loop
      vertex 27.8545 -29 15
      vertex 27.8545 -29 0
      vertex 20 15.5452 15
    endloop
  endfacet
  facet normal 1 0 0
    outer loop
      vertex 20 15.5452 15
      vertex 20 15.5452 0
      vertex 20 16.5 0
    endloop
  endfacet
  facet normal 1 0 0
    outer loop
      vertex 20 16.5 15
      vertex 20 15.5452 15
      vertex 20 16.5 0
    endloop
  endfacet
  facet normal 0 1 0
    outer loop
      vertex 0 16.5 0
      vertex 0 16.5 15
      vertex 20 16.5 0
    endloop
  endfacet
  facet normal 0 1 0
    outer loop
      vertex 20 16.5 0
      vertex 0 16.5 15
      vertex 20 16.5 15
    endloop
  endfacet
endsolid OpenSCAD_Model
