solid OpenSCAD_Model
  facet normal -0.978148 2.17192e-16 0.207912
    outer loop
      vertex -9.94522 -4.38042 -8.95472
      vertex -9.76145 -5.87785 -8.09017
      vertex -9.94522 -0.054781 -8.95472
    endloop
  endfacet
  facet normal -0.978148 2.17192e-16 0.207912
    outer loop
      vertex -9.94522 -0.054781 -8.95472
      vertex -9.76145 -5.87785 -8.09017
      vertex -9.51056 -7.18875 -6.90983
    endloop
  endfacet
  facet normal -0.978148 2.17192e-16 0.207912
    outer loop
      vertex -9.94522 -0.054781 -8.95472
      vertex -9.51056 -7.18875 -6.90983
      vertex -9.51056 -0.054781 -6.90983
    endloop
  endfacet
  facet normal -2.53529e-16 -0.5 -0.866025
    outer loop
      vertex -9.94522 -4.38042 -8.95472
      vertex -9.94522 -4.06737 -9.13546
      vertex -9.76145 -5.87785 -8.09017
    endloop
  endfacet
  facet normal -2.53529e-16 -0.5 -0.866025
    outer loop
      vertex -9.76145 -5.87785 -8.09017
      vertex -9.94522 -4.06737 -9.13546
      vertex -1.95916 -4.06737 -9.13546
    endloop
  endfacet
  facet normal -2.53529e-16 -0.5 -0.866025
    outer loop
      vertex -9.76145 -5.87785 -8.09017
      vertex -1.95916 -4.06737 -9.13546
      vertex -1.90983 -4.12215 -9.10383
    endloop
  endfacet
  facet normal -2.53529e-16 -0.5 -0.866025
    outer loop
      vertex -9.76145 -5.87785 -8.09017
      vertex -1.90983 -4.12215 -9.10383
      vertex -0.896173 -5.87785 -8.09017
    endloop
  endfacet
  facet normal -1 2.22045e-16 -2.22045e-16
    outer loop
      vertex -9.94522 -4.38042 -8.95472
      vertex -9.94522 -0.054781 -8.95472
      vertex -9.94522 -4.06737 -9.13546
    endloop
  endfacet
  facet normal -1 2.22045e-16 -2.22045e-16
    outer loop
      vertex -9.94522 -4.06737 -9.13546
      vertex -9.94522 -0.054781 -8.95472
      vertex -9.94522 -0.054781 -9.99424
    endloop
  endfacet
  facet normal -1 2.22045e-16 -2.22045e-16
    outer loop
      vertex -9.94522 -4.06737 -9.13546
      vertex -9.94522 -0.054781 -9.99424
      vertex -9.94522 -2.07912 -9.78148
    endloop
  endfacet
  facet normal 0 1 0
    outer loop
      vertex -9.94522 -0.054781 -8.95472
      vertex -9.51056 -0.054781 -6.90983
      vertex -9.94522 -0.054781 -9.99424
    endloop
  endfacet
  facet normal 0 1 0
    outer loop
      vertex -9.94522 -0.054781 -9.99424
      vertex -9.51056 -0.054781 -6.90983
      vertex -8.95471 -0.054781 -5.66137
    endloop
  endfacet
  facet normal 0 1 0
    outer loop
      vertex -9.94522 -0.054781 -9.99424
      vertex -8.95471 -0.054781 -5.66137
      vertex -8.95471 -0.054781 -9.99424
    endloop
  endfacet
  facet normal -0.913545 2.02848e-16 0.406737
    outer loop
      vertex -9.51056 -7.18875 -6.90983
      vertex -9.41327 -7.43145 -6.69131
      vertex -9.51056 -0.054781 -6.90983
    endloop
  endfacet
  facet normal -0.913545 2.02848e-16 0.406737
    outer loop
      vertex -9.51056 -0.054781 -6.90983
      vertex -9.41327 -7.43145 -6.69131
      vertex -8.66025 -8.66025 -5
    endloop
  endfacet
  facet normal -0.913545 2.02848e-16 0.406737
    outer loop
      vertex -9.51056 -0.054781 -6.90983
      vertex -8.66025 -8.66025 -5
      vertex -8.66025 -0.117371 -5
    endloop
  endfacet
  facet normal -0.913545 2.02848e-16 0.406737
    outer loop
      vertex -9.51056 -0.054781 -6.90983
      vertex -8.66025 -0.117371 -5
      vertex -8.95471 -0.054781 -5.66137
    endloop
  endfacet
  facet normal -2.46956e-16 -0.669131 -0.743145
    outer loop
      vertex -9.76145 -5.87785 -8.09017
      vertex -0.896173 -5.87785 -8.09017
      vertex -9.51056 -7.18875 -6.90983
    endloop
  endfacet
  facet normal -2.46956e-16 -0.669131 -0.743145
    outer loop
      vertex -9.51056 -7.18875 -6.90983
      vertex -0.896173 -5.87785 -8.09017
      vertex -0.864545 -5.93263 -8.04084
    endloop
  endfacet
  facet normal -2.46956e-16 -0.669131 -0.743145
    outer loop
      vertex -9.51056 -7.18875 -6.90983
      vertex -0.864545 -5.93263 -8.04084
      vertex -0.377551 -7.43145 -6.69131
    endloop
  endfacet
  facet normal -2.46956e-16 -0.669131 -0.743145
    outer loop
      vertex -9.51056 -7.18875 -6.90983
      vertex -0.377551 -7.43145 -6.69131
      vertex -9.41327 -7.43145 -6.69131
    endloop
  endfacet
  facet normal 0.866025 0.5 0
    outer loop
      vertex -0.896173 -5.87785 -8.09017
      vertex -1.90983 -4.12215 -9.10383
      vertex -1.90983 -4.12215 -0.200731
    endloop
  endfacet
  facet normal 0.866025 0.5 0
    outer loop
      vertex -0.864545 -5.93263 -8.04084
      vertex -0.896173 -5.87785 -8.09017
      vertex -0.864545 -5.93263 -0.0908673
    endloop
  endfacet
  facet normal 0.866025 0.5 0
    outer loop
      vertex -0.864545 -5.93263 -0.0908673
      vertex -0.896173 -5.87785 -8.09017
      vertex -1.90983 -4.12215 -0.200731
    endloop
  endfacet
  facet normal 0.743145 0.669131 0
    outer loop
      vertex -1.95916 -4.06737 -9.13546
      vertex -3.30869 -2.56855 -9.62245
      vertex -3.30869 -2.56855 -0.618038
    endloop
  endfacet
  facet normal 0.743145 0.669131 0
    outer loop
      vertex -1.90983 -4.12215 -0.200731
      vertex -1.95916 -4.06737 -9.13546
      vertex -2.07912 -3.93413 -0.218524
    endloop
  endfacet
  facet normal 0.743145 0.669131 0
    outer loop
      vertex -2.07912 -3.93413 -0.218524
      vertex -1.95916 -4.06737 -9.13546
      vertex -3.30869 -2.56855 -0.618038
    endloop
  endfacet
  facet normal 0.743145 0.669131 0
    outer loop
      vertex -1.90983 -4.12215 -9.10383
      vertex -1.95916 -4.06737 -9.13546
      vertex -1.90983 -4.12215 -0.200731
    endloop
  endfacet
  facet normal -2.49021e-16 -0.309017 -0.951057
    outer loop
      vertex -9.94522 -4.06737 -9.13546
      vertex -9.94522 -2.07912 -9.78148
      vertex -1.95916 -4.06737 -9.13546
    endloop
  endfacet
  facet normal -2.49021e-16 -0.309017 -0.951057
    outer loop
      vertex -1.95916 -4.06737 -9.13546
      vertex -9.94522 -2.07912 -9.78148
      vertex -3.98234 -2.07912 -9.78148
    endloop
  endfacet
  facet normal -2.49021e-16 -0.309017 -0.951057
    outer loop
      vertex -1.95916 -4.06737 -9.13546
      vertex -3.98234 -2.07912 -9.78148
      vertex -3.30869 -2.56855 -9.62245
    endloop
  endfacet
  facet normal -2.33629e-16 -0.104528 -0.994522
    outer loop
      vertex -9.94522 -2.07912 -9.78148
      vertex -9.94522 -0.054781 -9.99424
      vertex -3.98234 -2.07912 -9.78148
    endloop
  endfacet
  facet normal -2.33629e-16 -0.104528 -0.994522
    outer loop
      vertex -3.98234 -2.07912 -9.78148
      vertex -9.94522 -0.054781 -9.99424
      vertex -8.95471 -0.054781 -9.99424
    endloop
  endfacet
  facet normal -2.33629e-16 -0.104528 -0.994522
    outer loop
      vertex -3.98234 -2.07912 -9.78148
      vertex -8.95471 -0.054781 -9.99424
      vertex -6.90983 -0.489435 -9.94856
    endloop
  endfacet
  facet normal -2.33629e-16 -0.104528 -0.994522
    outer loop
      vertex -3.98234 -2.07912 -9.78148
      vertex -6.90983 -0.489435 -9.94856
      vertex -5 -1.33975 -9.85919
    endloop
  endfacet
  facet normal 0.207912 0.978148 0
    outer loop
      vertex -8.95471 -0.054781 -9.99424
      vertex -8.95471 -0.054781 -5.66137
      vertex -6.90983 -0.489435 -9.94856
    endloop
  endfacet
  facet normal 0.207912 0.978148 0
    outer loop
      vertex -6.90983 -0.489435 -9.94856
      vertex -8.95471 -0.054781 -5.66137
      vertex -8.66025 -0.117371 -5
    endloop
  endfacet
  facet normal 0.207912 0.978148 0
    outer loop
      vertex -6.90983 -0.489435 -9.94856
      vertex -8.66025 -0.117371 -5
      vertex -7.43145 -0.378562 -3.30869
    endloop
  endfacet
  facet normal 0.207912 0.978148 0
    outer loop
      vertex -6.90983 -0.489435 -9.94856
      vertex -7.43145 -0.378562 -3.30869
      vertex -6.90983 -0.489435 -2.83903
    endloop
  endfacet
  facet normal -0.809017 1.79638e-16 0.587785
    outer loop
      vertex -8.66025 -0.117371 -5
      vertex -8.66025 -8.66025 -5
      vertex -7.43145 -9.41327 -3.30869
    endloop
  endfacet
  facet normal -0.809017 1.79638e-16 0.587785
    outer loop
      vertex -8.66025 -0.117371 -5
      vertex -7.43145 -9.41327 -3.30869
      vertex -7.43145 -0.378562 -3.30869
    endloop
  endfacet
  facet normal -2.29591e-16 -0.809017 -0.587785
    outer loop
      vertex -8.66025 -8.66025 -5
      vertex -9.41327 -7.43145 -6.69131
      vertex -0.377551 -7.43145 -6.69131
    endloop
  endfacet
  facet normal -2.29591e-16 -0.809017 -0.587785
    outer loop
      vertex -0.140813 -8.66025 -5
      vertex -8.66025 -8.66025 -5
      vertex -0.218524 -7.92088 -6.01766
    endloop
  endfacet
  facet normal -2.29591e-16 -0.809017 -0.587785
    outer loop
      vertex -0.218524 -7.92088 -6.01766
      vertex -8.66025 -8.66025 -5
      vertex -0.377551 -7.43145 -6.69131
    endloop
  endfacet
  facet normal 0.951057 0.309017 0
    outer loop
      vertex -0.377551 -7.43145 -6.69131
      vertex -0.864545 -5.93263 -8.04084
      vertex -0.864545 -5.93263 -0.0908673
    endloop
  endfacet
  facet normal 0.951057 0.309017 0
    outer loop
      vertex -0.218524 -7.92088 -6.01766
      vertex -0.377551 -7.43145 -6.69131
      vertex -0.218524 -7.92088 -0.0229678
    endloop
  endfacet
  facet normal 0.951057 0.309017 0
    outer loop
      vertex -0.218524 -7.92088 -0.0229678
      vertex -0.377551 -7.43145 -6.69131
      vertex -0.864545 -5.93263 -0.0908673
    endloop
  endfacet
  facet normal -0.104528 2.321e-17 0.994522
    outer loop
      vertex -2.07912 -3.93413 -0.218524
      vertex -2.07912 -9.94522 -0.218524
      vertex -0.00575772 -9.94522 -0.00060516
    endloop
  endfacet
  facet normal -0.104528 2.321e-17 0.994522
    outer loop
      vertex -0.864545 -5.93263 -0.0908673
      vertex -2.07912 -3.93413 -0.218524
      vertex -0.218524 -7.92088 -0.0229678
    endloop
  endfacet
  facet normal -0.104528 2.321e-17 0.994522
    outer loop
      vertex -0.218524 -7.92088 -0.0229678
      vertex -2.07912 -3.93413 -0.218524
      vertex -0.00575772 -9.94522 -0.00060516
    endloop
  endfacet
  facet normal -0.104528 2.321e-17 0.994522
    outer loop
      vertex -1.90983 -4.12215 -0.200731
      vertex -2.07912 -3.93413 -0.218524
      vertex -0.864545 -5.93263 -0.0908673
    endloop
  endfacet
  facet normal -0.309017 6.86155e-17 0.951057
    outer loop
      vertex -4.06737 -2.01734 -0.864545
      vertex -4.06737 -9.94522 -0.864545
      vertex -2.07912 -9.94522 -0.218524
    endloop
  endfacet
  facet normal -0.309017 6.86155e-17 0.951057
    outer loop
      vertex -3.30869 -2.56855 -0.618038
      vertex -4.06737 -2.01734 -0.864545
      vertex -2.07912 -3.93413 -0.218524
    endloop
  endfacet
  facet normal -0.309017 6.86155e-17 0.951057
    outer loop
      vertex -2.07912 -3.93413 -0.218524
      vertex -4.06737 -2.01734 -0.864545
      vertex -2.07912 -9.94522 -0.218524
    endloop
  endfacet
  facet normal 0.587785 0.809017 0
    outer loop
      vertex -5 -1.33975 -9.85919
      vertex -5 -1.33975 -1.403
      vertex -3.98234 -2.07912 -9.78148
    endloop
  endfacet
  facet normal 0.587785 0.809017 0
    outer loop
      vertex -3.98234 -2.07912 -9.78148
      vertex -5 -1.33975 -1.403
      vertex -4.06737 -2.01734 -0.864545
    endloop
  endfacet
  facet normal 0.587785 0.809017 0
    outer loop
      vertex -3.98234 -2.07912 -9.78148
      vertex -4.06737 -2.01734 -0.864545
      vertex -3.30869 -2.56855 -0.618038
    endloop
  endfacet
  facet normal 0.587785 0.809017 0
    outer loop
      vertex -3.98234 -2.07912 -9.78148
      vertex -3.30869 -2.56855 -0.618038
      vertex -3.30869 -2.56855 -9.62245
    endloop
  endfacet
  facet normal 0.406737 0.913545 0
    outer loop
      vertex -6.90983 -0.489435 -9.94856
      vertex -6.90983 -0.489435 -2.83903
      vertex -5 -1.33975 -9.85919
    endloop
  endfacet
  facet normal 0.406737 0.913545 0
    outer loop
      vertex -5 -1.33975 -9.85919
      vertex -6.90983 -0.489435 -2.83903
      vertex -5.87785 -0.948901 -1.90983
    endloop
  endfacet
  facet normal 0.406737 0.913545 0
    outer loop
      vertex -5 -1.33975 -9.85919
      vertex -5.87785 -0.948901 -1.90983
      vertex -5 -1.33975 -1.403
    endloop
  endfacet
  facet normal -0.669131 1.48577e-16 0.743145
    outer loop
      vertex -7.43145 -0.378562 -3.30869
      vertex -7.43145 -9.41327 -3.30869
      vertex -7.18875 -9.51056 -3.09017
    endloop
  endfacet
  facet normal -0.669131 1.48577e-16 0.743145
    outer loop
      vertex -5.87785 -0.948901 -1.90983
      vertex -7.43145 -0.378562 -3.30869
      vertex -5.87785 -9.76145 -1.90983
    endloop
  endfacet
  facet normal -0.669131 1.48577e-16 0.743145
    outer loop
      vertex -5.87785 -9.76145 -1.90983
      vertex -7.43145 -0.378562 -3.30869
      vertex -7.18875 -9.51056 -3.09017
    endloop
  endfacet
  facet normal -0.669131 1.48577e-16 0.743145
    outer loop
      vertex -6.90983 -0.489435 -2.83903
      vertex -7.43145 -0.378562 -3.30869
      vertex -5.87785 -0.948901 -1.90983
    endloop
  endfacet
  facet normal -2.02191e-16 -0.913545 -0.406737
    outer loop
      vertex -7.43145 -9.41327 -3.30869
      vertex -8.66025 -8.66025 -5
      vertex -0.140813 -8.66025 -5
    endloop
  endfacet
  facet normal -2.02191e-16 -0.913545 -0.406737
    outer loop
      vertex -7.18875 -9.51056 -3.09017
      vertex -7.43145 -9.41327 -3.30869
      vertex -0.0514417 -9.51056 -3.09017
    endloop
  endfacet
  facet normal -2.02191e-16 -0.913545 -0.406737
    outer loop
      vertex -0.0514417 -9.51056 -3.09017
      vertex -7.43145 -9.41327 -3.30869
      vertex -0.140813 -8.66025 -5
    endloop
  endfacet
  facet normal 0.994522 0.104528 0
    outer loop
      vertex -0.140813 -8.66025 -5
      vertex -0.218524 -7.92088 -6.01766
      vertex -0.218524 -7.92088 -0.0229678
    endloop
  endfacet
  facet normal 0.994522 0.104528 0
    outer loop
      vertex -0.00575772 -9.94522 -1.04529
      vertex -0.140813 -8.66025 -5
      vertex -0.00575772 -9.94522 -0.00060516
    endloop
  endfacet
  facet normal 0.994522 0.104528 0
    outer loop
      vertex -0.00575772 -9.94522 -0.00060516
      vertex -0.140813 -8.66025 -5
      vertex -0.218524 -7.92088 -0.0229678
    endloop
  endfacet
  facet normal 0.994522 0.104528 0
    outer loop
      vertex -0.0514417 -9.51056 -3.09017
      vertex -0.140813 -8.66025 -5
      vertex -0.00575772 -9.94522 -1.04529
    endloop
  endfacet
  facet normal -1.22465e-16 -1 2.54072e-33
    outer loop
      vertex -4.06737 -9.94522 -0.864545
      vertex -4.38042 -9.94522 -1.04529
      vertex -0.00575772 -9.94522 -1.04529
    endloop
  endfacet
  facet normal -1.22465e-16 -1 2.54072e-33
    outer loop
      vertex -2.07912 -9.94522 -0.218524
      vertex -4.06737 -9.94522 -0.864545
      vertex -0.00575772 -9.94522 -0.00060516
    endloop
  endfacet
  facet normal -1.22465e-16 -1 2.54072e-33
    outer loop
      vertex -0.00575772 -9.94522 -0.00060516
      vertex -4.06737 -9.94522 -0.864545
      vertex -0.00575772 -9.94522 -1.04529
    endloop
  endfacet
  facet normal -0.5 1.11022e-16 0.866025
    outer loop
      vertex -5.87785 -0.948901 -1.90983
      vertex -5.87785 -9.76145 -1.90983
      vertex -4.38042 -9.94522 -1.04529
    endloop
  endfacet
  facet normal -0.5 1.11022e-16 0.866025
    outer loop
      vertex -4.06737 -2.01734 -0.864545
      vertex -5.87785 -0.948901 -1.90983
      vertex -4.06737 -9.94522 -0.864545
    endloop
  endfacet
  facet normal -0.5 1.11022e-16 0.866025
    outer loop
      vertex -4.06737 -9.94522 -0.864545
      vertex -5.87785 -0.948901 -1.90983
      vertex -4.38042 -9.94522 -1.04529
    endloop
  endfacet
  facet normal -0.5 1.11022e-16 0.866025
    outer loop
      vertex -5 -1.33975 -1.403
      vertex -5.87785 -0.948901 -1.90983
      vertex -4.06737 -2.01734 -0.864545
    endloop
  endfacet
  facet normal -1.65954e-16 -0.978148 -0.207912
    outer loop
      vertex -5.87785 -9.76145 -1.90983
      vertex -7.18875 -9.51056 -3.09017
      vertex -0.0514417 -9.51056 -3.09017
    endloop
  endfacet
  facet normal -1.65954e-16 -0.978148 -0.207912
    outer loop
      vertex -4.38042 -9.94522 -1.04529
      vertex -5.87785 -9.76145 -1.90983
      vertex -0.00575772 -9.94522 -1.04529
    endloop
  endfacet
  facet normal -1.65954e-16 -0.978148 -0.207912
    outer loop
      vertex -0.00575772 -9.94522 -1.04529
      vertex -5.87785 -9.76145 -1.90983
      vertex -0.0514417 -9.51056 -3.09017
    endloop
  endfacet
endsolid OpenSCAD_Model
